<svg id="Layer_1" data-name="Layer 1" xmlns="http://www.w3.org/2000/svg" viewBox="0 0 98.21 9.28"><defs><style>.cls-1{fill:#00acc1;}.cls-2{fill:#263238;}.cls-3{fill:#fff;}</style></defs><title>human-interaction-logo</title><polygon class="cls-1" points="0 3.17 6.86 0.91 10.59 2.04 13.67 0 15.14 1.08 13.84 4.77 13.41 8.89 7.57 9.28 0.52 5.29 0 3.17"/><path class="cls-2" d="M176.55,144.36H176l0.62-3.15h-2.9l-0.62,3.15h-0.55l1.37-6.83h0.55l-0.64,3.21h2.9l0.64-3.21h0.54Z" transform="translate(-153.01 -135.98)"/><path class="cls-2" d="M183.1,137.52l-1,4.78a2.72,2.72,0,0,1-.84,1.63,2.28,2.28,0,0,1-1.5.52,1.45,1.45,0,0,1-1.22-.56,1.91,1.91,0,0,1-.23-1.59l1-4.78h0.54l-1,4.79a1.64,1.64,0,0,0,.11,1.26,1,1,0,0,0,.89.4,1.56,1.56,0,0,0,1.06-.42,2.17,2.17,0,0,0,.64-1.25l1-4.79h0.55Z" transform="translate(-153.01 -135.98)"/><path class="cls-2" d="M185.15,137.52l0.59,6h0l3-6h0.71l-1.37,6.83h-0.55l0.6-3,0.6-2.74h0l-3,5.75H185.4l-0.66-5.74h0l-0.49,2.74-0.6,3h-0.54l1.37-6.83h0.71Z" transform="translate(-153.01 -135.98)"/><path class="cls-2" d="M193,142.46h-2.36l-0.93,1.9H189.1l3.43-6.83H193l0.67,6.83h-0.57Zm-2.1-.52h2.06l-0.31-3.48h0Z" transform="translate(-153.01 -135.98)"/><path class="cls-2" d="M198.65,144.36H198.1l-1.74-5.69h0l-1.14,5.69h-0.56l1.37-6.83h0.56l1.73,5.68h0l1.14-5.68H200Z" transform="translate(-153.01 -135.98)"/><path class="cls-2" d="M202.78,144.36h-0.56l1.37-6.83h0.56Z" transform="translate(-153.01 -135.98)"/><path class="cls-2" d="M208.39,144.36h-0.55l-1.74-5.69h0l-1.14,5.69h-0.56l1.37-6.83h0.56l1.73,5.68h0l1.14-5.68h0.55Z" transform="translate(-153.01 -135.98)"/><path class="cls-2" d="M214.66,138h-1.81l-1.27,6.34H211L212.3,138h-1.81l0.1-.5h4.17Z" transform="translate(-153.01 -135.98)"/><path class="cls-2" d="M218.13,141.05h-2.55L215,143.88h2.93l-0.1.48h-3.48l1.37-6.83h3.45l-0.1.5h-2.9l-0.51,2.55h2.55Z" transform="translate(-153.01 -135.98)"/><path class="cls-2" d="M220.05,141.26l-0.61,3.09h-0.55l1.37-6.83h1.88a1.46,1.46,0,0,1,1.21.49,1.65,1.65,0,0,1,.22,1.4,2.28,2.28,0,0,1-.45,1,1.94,1.94,0,0,1-.83.6,1,1,0,0,1,.59.59,1.93,1.93,0,0,1,0,1l-0.13.64a2.44,2.44,0,0,0-.06.58,0.78,0.78,0,0,0,.12.41l0,0.11h-0.57a0.82,0.82,0,0,1-.1-0.47,3.82,3.82,0,0,1,.08-0.64l0.13-.63a1.37,1.37,0,0,0-.09-1,0.82,0.82,0,0,0-.75-0.35h-1.45Zm0.1-.48h1.26a1.5,1.5,0,0,0,1-.38,1.79,1.79,0,0,0,.54-1,1.39,1.39,0,0,0-.09-1.05A1,1,0,0,0,222,138H220.7Z" transform="translate(-153.01 -135.98)"/><path class="cls-2" d="M227.31,142.46H225l-0.93,1.9h-0.57l3.43-6.83h0.5l0.67,6.83h-0.57Zm-2.1-.52h2.06L227,138.47h0Z" transform="translate(-153.01 -135.98)"/><path class="cls-2" d="M233.09,142.26v0a3.51,3.51,0,0,1-.83,1.61,1.91,1.91,0,0,1-1.41.56,1.49,1.49,0,0,1-1.35-.85,3,3,0,0,1-.23-2.12l0.23-1.12a4.82,4.82,0,0,1,.92-2.17,2,2,0,0,1,1.55-.77,1.58,1.58,0,0,1,1.32.61,2.15,2.15,0,0,1,.35,1.65h-0.55a2,2,0,0,0-.22-1.3,1.06,1.06,0,0,0-1-.46,1.43,1.43,0,0,0-1.13.68,4.25,4.25,0,0,0-.72,1.76l-0.23,1.13a2.94,2.94,0,0,0,.08,1.81,1.05,1.05,0,0,0,1,.67,1.31,1.31,0,0,0,1-.42,3.21,3.21,0,0,0,.66-1.3h0.51Z" transform="translate(-153.01 -135.98)"/><path class="cls-2" d="M238.66,138h-1.81l-1.27,6.34H235L236.3,138h-1.81l0.1-.5h4.17Z" transform="translate(-153.01 -135.98)"/><path class="cls-2" d="M239,144.36h-0.56l1.37-6.83h0.56Z" transform="translate(-153.01 -135.98)"/><path class="cls-2" d="M245.15,141.53a4.58,4.58,0,0,1-1,2.17,2.13,2.13,0,0,1-1.65.76,1.53,1.53,0,0,1-1.39-.85,3,3,0,0,1-.23-2.12l0.23-1.12a4.67,4.67,0,0,1,.94-2.18,2.06,2.06,0,0,1,1.61-.76,1.58,1.58,0,0,1,1.42.85,2.93,2.93,0,0,1,.25,2.13Zm-0.33-1.13a2.77,2.77,0,0,0-.11-1.8,1.16,1.16,0,0,0-1.11-.66,1.46,1.46,0,0,0-1.17.66,4.17,4.17,0,0,0-.73,1.76l-0.23,1.13a2.85,2.85,0,0,0,.1,1.81,1.11,1.11,0,0,0,1.07.66,1.52,1.52,0,0,0,1.21-.66,4.15,4.15,0,0,0,.75-1.76Z" transform="translate(-153.01 -135.98)"/><path class="cls-2" d="M249.86,144.36h-0.55l-1.74-5.69h0l-1.14,5.69h-0.56l1.37-6.83h0.56l1.73,5.68h0l1.14-5.68h0.55Z" transform="translate(-153.01 -135.98)"/><path class="cls-3" d="M161.89,142.89H161.6l0.33-1.66H160.4l-0.33,1.66h-0.29l0.72-3.6h0.29L160.46,141H162l0.34-1.69h0.29Z" transform="translate(-153.01 -135.98)"/><path class="cls-3" d="M163,142.89h-0.29l0.72-3.6h0.29Z" transform="translate(-153.01 -135.98)"/></svg>